:version 1.10
:name ASF
:units
  mass 1
  length 1
  angle deg
:documentation
  ASF file generated by Kaydara
:root
  axis xyz
  order  tx ty tz rx ry rz
  position 0 0 0
  orientation 0 0 0
:bonedata
  begin
    id 1
    name RightUpLegDummy
    direction -0.718183 -0.695806 0.00816078
    length 4.904
    axis 0 0 0 xyz
  end
  begin
    id 2
    name RightUpLeg
    direction 3.53989e-006 -0.995788 0.0916897
    length 17.4976
    axis -3.49089 -0.000906621 0.000287158 xyz
    dof rx ry rz
  end
  begin
    id 3
    name RightLeg
    direction 0.00371093 -0.995096 -0.0988418
    length 16.5821
    axis 3.68512 0.0193738 -0.131023 xyz
    dof rx ry rz
  end
  begin
    id 4
    name RightFoot
    direction 0.000791514 -0.46099 0.887405
    length 3.77069
    axis 4.84075e-005 -0.120479 -0.188788 xyz
    dof rx ry rz
  end
  begin
    id 5
    name RightToes
    direction 0.00124746 -0.014064 0.9999
    length 3.85082
    axis 0.00048216 0.542163 -0.142577 xyz
    dof rx ry rz
  end
  begin
    id 6
    name SpineDummy
    direction 8.36599e-015 1 5.97571e-016
    length 4.6813
    axis 0 0 0 xyz
  end
  begin
    id 7
    name Spine
    direction -4.63632e-008 0.999988 0.00495137
    length 10.1015
    axis -0.00138897 0.000121419 3.25764e-006 xyz
    dof rx ry rz
  end
  begin
    id 8
    name Spine1
    direction 0 0 0
    length 0
    axis -0.00138896 0.000121452 2.39764e-006 xyz
    dof rx ry rz
  end
  begin
    id 9
    name HEadDummy
    direction -3.91456e-008 0.999999 0.00127422
    length 3.43865
    axis -0.00138896 0.000121452 2.39764e-006 xyz
  end
  begin
    id 10
    name HEad
    direction -0.0222688 0.980941 0.193023
    length 5.12695
    axis -0.00138895 0.000121452 2.39764e-006 xyz
    dof rx ry rz
  end
  begin
    id 11
    name LeftShoulder1Dummy
    direction 0.998891 -0.0402508 -0.0244456
    length 3.5433
    axis -0.00138896 0.000121452 2.39764e-006 xyz
  end
  begin
    id 12
    name LeftShoulder1
    direction 0.99951 -0.000327743 0.0313091
    length 4.05031
    axis -0.00138896 0.000121452 2.39764e-006 xyz
    dof rx ry rz
  end
  begin
    id 13
    name LeftArm
    direction 0.998561 -0.00100054 -0.0536182
    length 10.3537
    axis -23.1894 0.134784 0.96751 xyz
    dof rx ry rz
  end
  begin
    id 14
    name LeftForeArm
    direction 0.998903 0.00866434 0.046012
    length 8.70632
    axis -9.91835 -0.06569 -0.177792 xyz
    dof rx ry rz
  end
  begin
    id 15
    name LeftHand
    direction 0.992938 -0.0411636 0.11126
    length 5.32135
    axis -0.00960227 -0.00340091 0.185174 xyz
    dof rx ry rz
  end
  begin
    id 16
    name RightShoulderDummy
    direction -0.998891 -0.0402509 -0.0244414
    length 3.5433
    axis -0.00138896 0.000121452 2.39764e-006 xyz
  end
  begin
    id 17
    name RightShoulder
    direction -0.99951 -0.000327827 0.0313133
    length 4.05031
    axis 0.215806 0.000203644 -0.00680151 xyz
    dof rx ry rz
  end
  begin
    id 18
    name RightArm
    direction -0.998573 -0.000999583 -0.053403
    length 10.3947
    axis -23.2009 -0.134239 -0.9641 xyz
    dof rx ry rz
  end
  begin
    id 19
    name RightForeArm
    direction -0.998898 0.00868026 0.0461306
    length 8.68355
    axis -9.92322 0.0658061 0.178869 xyz
    dof rx ry rz
  end
  begin
    id 20
    name RightHand
    direction -0.992843 -0.0414603 0.112003
    length 5.28593
    axis -0.00960634 0.00330671 -0.185226 xyz
    dof rx ry rz
  end
  begin
    id 21
    name LeftUpLegDummy
    direction 0.718183 -0.695806 0.00816078
    length 4.904
    axis 0 0 0 xyz
  end
  begin
    id 22
    name LeftUpLeg
    direction -6.8115e-006 -0.995793 0.0916336
    length 17.4976
    axis -3.48766 0.00143441 -0.000523914 xyz
    dof rx ry rz
  end
  begin
    id 23
    name LeftLeg
    direction -0.00601357 -0.995091 -0.0987824
    length 16.5821
    axis 3.68177 -0.00654038 -0.00028478 xyz
    dof rx ry rz
  end
  begin
    id 24
    name LeftFoot
    direction -0.00417578 -0.460984 0.887399
    length 3.77069
    axis 1.87232e-006 4.66002e-005 -8.1837e-006 xyz
    dof rx ry rz
  end
  begin
    id 25
    name LeftToes
    direction 0.00818058 -0.00485161 0.999955
    length 3.85048
    axis 1.06246e-005 4.65855e-005 -8.18502e-006 xyz
    dof rx ry rz
  end
:hierarchy
  begin
    root RightUpLegDummy SpineDummy LeftUpLegDummy
    RightUpLegDummy RightUpLeg
    RightUpLeg RightLeg
    RightLeg RightFoot
    RightFoot RightToes
    SpineDummy Spine
    Spine Spine1
    Spine1 HEadDummy LeftShoulder1Dummy RightShoulderDummy
    HEadDummy HEad
    LeftShoulder1Dummy LeftShoulder1
    LeftShoulder1 LeftArm
    LeftArm LeftForeArm
    LeftForeArm LeftHand
    RightShoulderDummy RightShoulder
    RightShoulder RightArm
    RightArm RightForeArm
    RightForeArm RightHand
    LeftUpLegDummy LeftUpLeg
    LeftUpLeg LeftLeg
    LeftLeg LeftFoot
    LeftFoot LeftToes
  end

:SAMPLES-PER-SECOND 30
:FULLY-SPECIFIED
:DEGREES
1
root  2.85449 40.2064 0.573674 0.617476 -86.6657 -2.24024
RightUpLeg  1.82362 -8.78872 -9.71238
RightLeg  -0.377234 -14.5425 -0.867618
RightFoot  6.14091 -1.82816 12.1018
RightToes  -5.28226e-011 1.30204e-014 -6.03759e-014
Spine  2.30995 -0.179775 1.29525
Spine1  4.95854 0.192839 -1.6492
HEad  -3.61025 -9.30891 -1.56217
LeftShoulder1  2.58308 -6.52909 -19.2481
LeftArm  2.88878 10.1739 -53.7369
LeftForeArm  5.75015 -9.80762 -13.1369
LeftHand  -0.355235 0.697231 8.78805
RightShoulder  1.76143 3.00495 20.7823
RightArm  4.12216 -5.81815 52.6367
RightForeArm  19.8541 7.93335 14.0826
RightHand  -0.22317 -3.51933 -13.1746
LeftUpLeg  1.83917 9.60702 9.79276
LeftLeg  1.53395 -2.06257 1.60684
LeftFoot  0.289964 1.41207 -13.7241
LeftToes  -2.42178e-010 -1.66495e-011 -2.88221e-011
2
root  2.85825 40.2064 0.574159 0.525306 -86.6856 -2.14675
RightUpLeg  1.81126 -8.79994 -9.72455
RightLeg  -0.375072 -14.5164 -0.858709
RightFoot  6.14906 -1.82752 12.0917
RightToes  -5.28226e-011 1.30204e-014 -6.03759e-014
Spine  2.33814 -0.170497 1.31763
Spine1  4.92521 0.207335 -1.67611
HEad  -3.66359 -9.33854 -1.5149
LeftShoulder1  2.58449 -6.54773 -19.2119
LeftArm  3.10445 10.1807 -53.8224
LeftForeArm  5.5639 -9.94989 -13.0924
LeftHand  -0.349931 0.807663 8.85382
RightShoulder  1.76143 3.0221 20.7823
RightArm  4.03354 -5.73573 52.6585
RightForeArm  19.901 7.79624 14.1364
RightHand  -0.214008 -3.6044 -13.1885
LeftUpLeg  1.85795 9.62195 9.79619
LeftLeg  1.49405 -2.04482 1.58258
LeftFoot  0.305378 1.41122 -13.7105
LeftToes  -2.42178e-010 -1.66495e-011 -2.88221e-011
3
root  2.86447 40.2064 0.576235 0.543297 -86.7092 -2.15674
RightUpLeg  1.79536 -8.79575 -9.72325
RightLeg  -0.394284 -14.5026 -0.854659
RightFoot  6.17439 -1.82678 12.0799
RightToes  -5.28226e-011 1.30204e-014 -6.03759e-014
Spine  2.37985 -0.149518 1.35946
Spine1  4.89256 0.233778 -1.70507
HEad  -3.78858 -9.42337 -1.47994
LeftShoulder1  2.59681 -6.59016 -19.2269
LeftArm  3.50918 10.1435 -53.9161
LeftForeArm  5.11778 -10.1865 -13.0258
LeftHand  -0.326445 1.15946 8.90406
RightShoulder  1.76143 3.04488 20.7843
RightArm  3.97891 -5.63333 52.6893
RightForeArm  19.9032 7.6837 14.1832
RightHand  -0.192739 -3.79633 -13.1808
LeftUpLeg  1.86996 9.65251 9.81288
LeftLeg  1.44968 -2.04211 1.54345
LeftFoot  0.328138 1.41012 -13.693
LeftToes  -2.42178e-010 -1.66495e-011 -2.88221e-011
4
root  2.86899 40.2064 0.579097 0.626471 -86.6953 -2.21946
RightUpLeg  1.78161 -8.78068 -9.71291
RightLeg  -0.422911 -14.5344 -0.859943
RightFoot  6.19915 -1.82706 12.0826
RightToes  -5.28226e-011 1.30204e-014 -6.03759e-014
Spine  2.38706 -0.136716 1.39698
Spine1  4.9183 0.250666 -1.72215
HEad  -3.93944 -9.51782 -1.4516
LeftShoulder1  2.6091 -6.6286 -19.2543
LeftArm  3.75069 10.0569 -54.0285
LeftForeArm  4.74803 -10.3275 -12.9892
LeftHand  -0.298338 1.58743 8.99146
RightShoulder  1.76143 3.04579 20.7876
RightArm  4.1015 -5.58889 52.7176
RightForeArm  19.7662 7.74475 14.1725
RightHand  -0.171852 -3.98844 -13.2068
LeftUpLeg  1.84181 9.66208 9.81732
LeftLeg  1.44352 -2.06537 1.5251
LeftFoot  0.337288 1.40936 -13.6808
LeftToes  -2.42178e-010 -1.66495e-011 -2.88221e-011
5
root  2.86814 40.2064 0.583463 0.399155 -86.627 -1.96416
RightUpLeg  1.77715 -8.79075 -9.73391
RightLeg  -0.436016 -14.5912 -0.856893
RightFoot  6.20067 -1.82906 12.1022
RightToes  -5.28226e-011 1.30204e-014 -6.03759e-014
Spine  2.34133 -0.150621 1.38991
Spine1  5.0016 0.234326 -1.7069
HEad  -4.05842 -9.5767 -1.40243
LeftShoulder1  2.60999 -6.64133 -19.2108
LeftArm  3.71448 9.9883 -54.2261
LeftForeArm  4.63786 -10.3469 -12.9823
LeftHand  -0.282825 1.84737 9.1061
RightShoulder  1.76139 3.02818 20.7557
RightArm  4.26715 -5.57891 52.7614
RightForeArm  19.6248 7.83026 14.1549
RightHand  -0.165134 -4.0623 -13.3378
LeftUpLeg  1.79294 9.62729 9.77702
LeftLeg  1.44718 -2.09539 1.53837
LeftFoot  0.34038 1.40864 -13.6694
LeftToes  -2.42178e-010 -1.66495e-011 -2.88221e-011
6
root  2.86171 40.2064 0.588735 -0.258939 -86.5366 -1.27988
RightUpLeg  1.78648 -8.8335 -9.79783
RightLeg  -0.436763 -14.6356 -0.841606
RightFoot  6.18345 -1.83162 12.1242
RightToes  -5.28226e-011 1.30204e-014 -6.03759e-014
Spine  2.26721 -0.184176 1.32547
Spine1  5.10345 0.186986 -1.64582
HEad  -4.14212 -9.61565 -1.37722
LeftShoulder1  2.61072 -6.62571 -19.1882
LeftArm  3.69555 9.96838 -54.3968
LeftForeArm  4.57513 -10.3764 -12.9745
LeftHand  -0.28169 1.86611 9.11585
RightShoulder  1.76165 3.02199 20.6595
RightArm  4.27961 -5.56173 52.8333
RightForeArm  19.6678 7.77717 14.1798
RightHand  -0.174189 -4.00234 -13.5463
LeftUpLeg  1.77433 9.57648 9.70516
LeftLeg  1.39891 -2.12154 1.55418
LeftFoot  0.366291 1.40734 -13.6485
LeftToes  -2.42178e-010 -1.66495e-011 -2.88221e-011
7
root  2.85386 40.2064 0.59278 -0.957401 -86.4763 -0.563221
RightUpLeg  1.79932 -8.87336 -9.86262
RightLeg  -0.438063 -14.6537 -0.828046
RightFoot  6.16854 -1.83382 12.1375
RightToes  -5.28226e-011 1.30204e-014 -6.03759e-014
Spine  2.20084 -0.211346 1.26394
Spine1  5.2095 0.148647 -1.59931
HEad  -4.24691 -9.66153 -1.41302
LeftShoulder1  2.61093 -6.59115 -19.3124
LeftArm  3.89802 9.94289 -54.3751
LeftForeArm  4.4208 -10.4579 -12.9574
LeftHand  -0.289093 1.72678 9.02174
RightShoulder  1.76377 3.03712 20.5713
RightArm  4.18973 -5.54552 52.8949
RightForeArm  19.8376 7.67445 14.2123
RightHand  -0.186421 -3.90943 -13.6875
LeftUpLeg  1.79897 9.55158 9.65019
LeftLeg  1.30614 -2.1439 1.54761
LeftFoot  0.409899 1.40563 -13.6211
LeftToes  -2.42178e-010 -1.66495e-011 -2.88221e-011
8
root  2.84781 40.2064 0.594108 -1.25604 -86.4588 -0.260893
RightUpLeg  1.80825 -8.88027 -9.88464
RightLeg  -0.432111 -14.6628 -0.834139
RightFoot  6.15818 -1.83583 12.1474
RightToes  -5.28226e-011 1.30204e-014 -6.03759e-014
Spine  2.15735 -0.217829 1.27238
Spine1  5.33348 0.153372 -1.64382
HEad  -4.40292 -9.69249 -1.45268
LeftShoulder1  2.61086 -6.55298 -19.4846
LeftArm  4.07227 9.87637 -54.2385
LeftForeArm  4.41824 -10.4699 -12.9619
LeftHand  -0.302777 1.52286 8.98207
RightShoulder  1.76546 3.04882 20.5882
RightArm  4.15644 -5.55741 52.8963
RightForeArm  19.9187 7.68296 14.2018
RightHand  -0.189038 -3.87862 -13.6112
LeftUpLeg  1.82525 9.55111 9.63594
LeftLeg  1.26186 -2.15802 1.53635
LeftFoot  0.421292 1.40378 -13.6059
LeftToes  -2.42178e-010 -1.66495e-011 -2.88221e-011
9
root  2.84131 40.2064 0.593226 -1.10402 -86.4425 -0.425267
RightUpLeg  1.82883 -8.86244 -9.8662
RightLeg  -0.416368 -14.6936 -0.855601
RightFoot  6.14009 -1.83787 12.1607
RightToes  -5.28226e-011 1.30204e-014 -6.03759e-014
Spine  2.12691 -0.214834 1.31468
Spine1  5.47054 0.177198 -1.72151
HEad  -4.56288 -9.67593 -1.43871
LeftShoulder1  2.60821 -6.52593 -19.5262
LeftArm  3.95549 9.83288 -54.2058
LeftForeArm  4.70284 -10.3603 -12.9955
LeftHand  -0.317876 1.33977 9.03276
RightShoulder  1.76438 3.03791 20.6625
RightArm  4.1205 -5.59732 52.8596
RightForeArm  19.8982 7.75238 14.1669
RightHand  -0.184833 -3.88742 -13.3536
LeftUpLeg  1.81555 9.54898 9.64584
LeftLeg  1.32164 -2.17061 1.54602
LeftFoot  0.37742 1.39977 -13.6117
LeftToes  -2.42178e-010 -1.66495e-011 -2.88221e-011
10
root  2.83048 40.2064 0.591428 -0.726517 -86.3898 -0.813868
RightUpLeg  1.87408 -8.8393 -9.83212
RightLeg  -0.421078 -14.7669 -0.87223
RightFoot  6.12067 -1.83952 12.1734
RightToes  -5.28226e-011 1.30204e-014 -6.03759e-014
Spine  2.08667 -0.221088 1.28961
Spine1  5.60031 0.163729 -1.68063
HEad  -4.66929 -9.61589 -1.41112
LeftShoulder1  2.60051 -6.50819 -19.4931
LeftArm  3.74508 9.88746 -54.283
LeftForeArm  4.91367 -10.2701 -13.0199
LeftHand  -0.3232 1.28323 9.05948
RightShoulder  1.75653 3.01104 20.6506
RightArm  3.90361 -5.64974 52.8623
RightForeArm  19.9964 7.73089 14.1516
RightHand  -0.188264 -3.83564 -13.1702
LeftUpLeg  1.77847 9.54776 9.66577
LeftLeg  1.41947 -2.21313 1.56279
LeftFoot  0.322232 1.39476 -13.6242
LeftToes  -2.42178e-010 -1.66495e-011 -2.88221e-011
11
root  2.8161 40.2064 0.589155 -0.278123 -86.3157 -1.24363
RightUpLeg  1.91852 -8.81132 -9.78976
RightLeg  -0.46852 -14.8732 -0.875688
RightFoot  6.12016 -1.84046 12.1836
RightToes  -5.28226e-011 1.30204e-014 -6.03759e-014
Spine  2.01631 -0.241694 1.18163
Spine1  5.72682 0.103034 -1.50877
HEad  -4.72734 -9.52916 -1.41026
LeftShoulder1  2.60052 -6.4807 -19.5701
LeftArm  3.75608 10.0122 -54.284
LeftForeArm  4.72739 -10.3098 -13.0131
LeftHand  -0.315336 1.39622 9.08544
RightShoulder  1.74087 2.97482 20.5533
RightArm  3.57817 -5.70148 52.9158
RightForeArm  20.2772 7.63407 14.1526
RightHand  -0.20468 -3.69694 -13.2483
LeftUpLeg  1.73903 9.5677 9.70047
LeftLeg  1.45716 -2.29981 1.55789
LeftFoot  0.301803 1.39264 -13.6291
LeftToes  -2.42178e-010 -1.66495e-011 -2.88221e-011
